<?xml version="1.0" encoding="utf-8" standalone="no"?>
<!DOCTYPE svg PUBLIC "-//W3C//DTD SVG 1.1//EN"
  "http://www.w3.org/Graphics/SVG/1.1/DTD/svg11.dtd">
<svg xmlns:xlink="http://www.w3.org/1999/xlink" width="460.8pt" height="280.512pt" viewBox="0 0 460.8 280.512" xmlns="http://www.w3.org/2000/svg" version="1.1">
 <metadata>
  <rdf:RDF xmlns:dc="http://purl.org/dc/elements/1.1/" xmlns:cc="http://creativecommons.org/ns#" xmlns:rdf="http://www.w3.org/1999/02/22-rdf-syntax-ns#">
   <cc:Work>
    <dc:type rdf:resource="http://purl.org/dc/dcmitype/StillImage"/>
    <dc:date>2026-06-26T08:19:12.912949</dc:date>
    <dc:format>image/svg+xml</dc:format>
    <dc:creator>
     <cc:Agent>
      <dc:title>Matplotlib v3.10.9, https://matplotlib.org/</dc:title>
     </cc:Agent>
    </dc:creator>
   </cc:Work>
  </rdf:RDF>
 </metadata>
 <defs>
  <style type="text/css">*{stroke-linejoin: round; stroke-linecap: butt}</style>
 </defs>
 <g id="figure_1">
  <g id="patch_1">
   <path d="M 0 280.512 
L 460.8 280.512 
L 460.8 0 
L 0 0 
z
" style="fill: #ffffff"/>
  </g>
  <g id="axes_1">
   <g id="patch_2">
    <path d="M 136.656 48.44736 
L 324.144 48.44736 
Q 335.304 48.44736 335.304 41.79456 
L 335.304 25.82784 
Q 335.304 19.17504 324.144 19.17504 
L 136.656 19.17504 
Q 125.496 19.17504 125.496 25.82784 
L 125.496 41.79456 
Q 125.496 48.44736 136.656 48.44736 
z
" clip-path="url(#p21ef2b326d)" style="fill: #f4f7f9; stroke: #333333; stroke-width: 0.8; stroke-linejoin: miter"/>
   </g>
   <g id="patch_3">
    <path d="M 33.984 96.34752 
L 176.832 96.34752 
Q 187.992 96.34752 187.992 89.69472 
L 187.992 71.06688 
Q 187.992 64.41408 176.832 64.41408 
L 33.984 64.41408 
Q 22.824 64.41408 22.824 71.06688 
L 22.824 89.69472 
Q 22.824 96.34752 33.984 96.34752 
z
" clip-path="url(#p21ef2b326d)" style="fill: #d9eef0; stroke: #333333; stroke-width: 0.8; stroke-linejoin: miter"/>
   </g>
   <g id="patch_4">
    <path d="M 33.984 138.92544 
L 176.832 138.92544 
Q 187.992 138.92544 187.992 132.27264 
L 187.992 113.6448 
Q 187.992 106.992 176.832 106.992 
L 33.984 106.992 
Q 22.824 106.992 22.824 113.6448 
L 22.824 132.27264 
Q 22.824 138.92544 33.984 138.92544 
z
" clip-path="url(#p21ef2b326d)" style="fill: #d9eef0; stroke: #333333; stroke-width: 0.8; stroke-linejoin: miter"/>
   </g>
   <g id="patch_5">
    <path d="M 33.984 181.50336 
L 176.832 181.50336 
Q 187.992 181.50336 187.992 174.85056 
L 187.992 156.22272 
Q 187.992 149.56992 176.832 149.56992 
L 33.984 149.56992 
Q 22.824 149.56992 22.824 156.22272 
L 22.824 174.85056 
Q 22.824 181.50336 33.984 181.50336 
z
" clip-path="url(#p21ef2b326d)" style="fill: #d9eef0; stroke: #333333; stroke-width: 0.8; stroke-linejoin: miter"/>
   </g>
   <g id="patch_6">
    <path d="M 33.984 226.7424 
L 176.832 226.7424 
Q 187.992 226.7424 187.992 220.0896 
L 187.992 201.46176 
Q 187.992 194.80896 176.832 194.80896 
L 33.984 194.80896 
Q 22.824 194.80896 22.824 201.46176 
L 22.824 220.0896 
Q 22.824 226.7424 33.984 226.7424 
z
" clip-path="url(#p21ef2b326d)" style="fill: #b9dee2; stroke: #333333; stroke-width: 0.8; stroke-linejoin: miter"/>
   </g>
   <g id="patch_7">
    <path d="M 283.968 96.34752 
L 426.816 96.34752 
Q 437.976 96.34752 437.976 89.69472 
L 437.976 71.06688 
Q 437.976 64.41408 426.816 64.41408 
L 283.968 64.41408 
Q 272.808 64.41408 272.808 71.06688 
L 272.808 89.69472 
Q 272.808 96.34752 283.968 96.34752 
z
" clip-path="url(#p21ef2b326d)" style="fill: #eceff1; stroke: #333333; stroke-width: 0.8; stroke-linejoin: miter"/>
   </g>
   <g id="patch_8">
    <path d="M 283.968 138.92544 
L 426.816 138.92544 
Q 437.976 138.92544 437.976 132.27264 
L 437.976 113.6448 
Q 437.976 106.992 426.816 106.992 
L 283.968 106.992 
Q 272.808 106.992 272.808 113.6448 
L 272.808 132.27264 
Q 272.808 138.92544 283.968 138.92544 
z
" clip-path="url(#p21ef2b326d)" style="fill: #eceff1; stroke: #333333; stroke-width: 0.8; stroke-linejoin: miter"/>
   </g>
   <g id="patch_9">
    <path d="M 283.968 181.50336 
L 426.816 181.50336 
Q 437.976 181.50336 437.976 174.85056 
L 437.976 156.22272 
Q 437.976 149.56992 426.816 149.56992 
L 283.968 149.56992 
Q 272.808 149.56992 272.808 156.22272 
L 272.808 174.85056 
Q 272.808 181.50336 283.968 181.50336 
z
" clip-path="url(#p21ef2b326d)" style="fill: #eceff1; stroke: #333333; stroke-width: 0.8; stroke-linejoin: miter"/>
   </g>
   <g id="patch_10">
    <path d="M 283.968 226.7424 
L 426.816 226.7424 
Q 437.976 226.7424 437.976 220.0896 
L 437.976 201.46176 
Q 437.976 194.80896 426.816 194.80896 
L 283.968 194.80896 
Q 272.808 194.80896 272.808 201.46176 
L 272.808 220.0896 
Q 272.808 226.7424 283.968 226.7424 
z
" clip-path="url(#p21ef2b326d)" style="fill: #dadce0; stroke: #333333; stroke-width: 0.8; stroke-linejoin: miter"/>
   </g>
   <g id="patch_11">
    <path d="M 136.656 266.6592 
L 324.144 266.6592 
Q 335.304 266.6592 335.304 260.0064 
L 335.304 241.37856 
Q 335.304 234.72576 324.144 234.72576 
L 136.656 234.72576 
Q 125.496 234.72576 125.496 241.37856 
L 125.496 260.0064 
Q 125.496 266.6592 136.656 266.6592 
z
" clip-path="url(#p21ef2b326d)" style="fill: #fff4d6; stroke: #333333; stroke-width: 0.8; stroke-linejoin: miter"/>
   </g>
   <g id="patch_12">
    <path d="M 228.435557 44.832093 
Q 167.903581 56.4308 108.250051 67.861186 
" clip-path="url(#p21ef2b326d)" style="fill: none; stroke: #333333; stroke-width: 0.8; stroke-linecap: round"/>
    <path d="M 112.554961 69.072695 
L 108.250051 67.861186 
L 111.802204 65.144163 
z
" clip-path="url(#p21ef2b326d)" style="fill: #333333; stroke: #333333; stroke-width: 0.8; stroke-linecap: round"/>
   </g>
   <g id="patch_13">
    <path d="M 232.364443 44.832093 
Q 292.896419 56.4308 352.549949 67.861186 
" clip-path="url(#p21ef2b326d)" style="fill: none; stroke: #333333; stroke-width: 0.8; stroke-linecap: round"/>
    <path d="M 348.997796 65.144163 
L 352.549949 67.861186 
L 348.245039 69.072695 
z
" clip-path="url(#p21ef2b326d)" style="fill: #333333; stroke: #333333; stroke-width: 0.8; stroke-linecap: round"/>
   </g>
   <g id="patch_14">
    <path d="M 105.408 94.35233 
Q 105.408 101.667119 105.408 108.087481 
" clip-path="url(#p21ef2b326d)" style="fill: none; stroke: #333333; stroke-width: 0.8; stroke-linecap: round"/>
    <path d="M 107.408 104.087481 
L 105.408 108.087481 
L 103.408 104.087481 
z
" clip-path="url(#p21ef2b326d)" style="fill: #333333; stroke: #333333; stroke-width: 0.8; stroke-linecap: round"/>
   </g>
   <g id="patch_15">
    <path d="M 105.408 136.93025 
Q 105.408 144.245039 105.408 150.665401 
" clip-path="url(#p21ef2b326d)" style="fill: none; stroke: #333333; stroke-width: 0.8; stroke-linecap: round"/>
    <path d="M 107.408 146.665401 
L 105.408 150.665401 
L 103.408 146.665401 
z
" clip-path="url(#p21ef2b326d)" style="fill: #333333; stroke: #333333; stroke-width: 0.8; stroke-linecap: round"/>
   </g>
   <g id="patch_16">
    <path d="M 105.408 179.510119 
Q 105.408 188.154589 105.408 195.904633 
" clip-path="url(#p21ef2b326d)" style="fill: none; stroke: #333333; stroke-width: 0.8; stroke-linecap: round"/>
    <path d="M 107.408 191.904633 
L 105.408 195.904633 
L 103.408 191.904633 
z
" clip-path="url(#p21ef2b326d)" style="fill: #333333; stroke: #333333; stroke-width: 0.8; stroke-linecap: round"/>
   </g>
   <g id="patch_17">
    <path d="M 355.392 94.35233 
Q 355.392 101.667119 355.392 108.087481 
" clip-path="url(#p21ef2b326d)" style="fill: none; stroke: #333333; stroke-width: 0.8; stroke-linecap: round"/>
    <path d="M 357.392 104.087481 
L 355.392 108.087481 
L 353.392 104.087481 
z
" clip-path="url(#p21ef2b326d)" style="fill: #333333; stroke: #333333; stroke-width: 0.8; stroke-linecap: round"/>
   </g>
   <g id="patch_18">
    <path d="M 355.392 136.93025 
Q 355.392 144.245039 355.392 150.665401 
" clip-path="url(#p21ef2b326d)" style="fill: none; stroke: #333333; stroke-width: 0.8; stroke-linecap: round"/>
    <path d="M 357.392 146.665401 
L 355.392 150.665401 
L 353.392 146.665401 
z
" clip-path="url(#p21ef2b326d)" style="fill: #333333; stroke: #333333; stroke-width: 0.8; stroke-linecap: round"/>
   </g>
   <g id="patch_19">
    <path d="M 355.392 179.510119 
Q 355.392 188.154589 355.392 195.904633 
" clip-path="url(#p21ef2b326d)" style="fill: none; stroke: #333333; stroke-width: 0.8; stroke-linecap: round"/>
    <path d="M 357.392 191.904633 
L 355.392 195.904633 
L 353.392 191.904633 
z
" clip-path="url(#p21ef2b326d)" style="fill: #333333; stroke: #333333; stroke-width: 0.8; stroke-linecap: round"/>
   </g>
   <g id="patch_20">
    <path d="M 107.377893 223.103013 
Q 150.048416 230.734154 191.838482 238.207836 
" clip-path="url(#p21ef2b326d)" style="fill: none; stroke: #333333; stroke-width: 0.8; stroke-linecap: round"/>
    <path d="M 188.253045 235.534889 
L 191.838482 238.207836 
L 187.548862 239.472417 
z
" clip-path="url(#p21ef2b326d)" style="fill: #333333; stroke: #333333; stroke-width: 0.8; stroke-linecap: round"/>
   </g>
   <g id="patch_21">
    <path d="M 353.422107 223.103013 
Q 310.751584 230.734154 268.961518 238.207836 
" clip-path="url(#p21ef2b326d)" style="fill: none; stroke: #333333; stroke-width: 0.8; stroke-linecap: round"/>
    <path d="M 273.251138 239.472417 
L 268.961518 238.207836 
L 272.546955 235.534889 
z
" clip-path="url(#p21ef2b326d)" style="fill: #333333; stroke: #333333; stroke-width: 0.8; stroke-linecap: round"/>
   </g>
   <g id="text_1">
    <text style="font-size: 8px; font-family: 'Arial', 'Helvetica', 'DejaVu Sans', sans-serif" transform="translate(184.15125 31.5432)">Matched Batch 5 holdouts</text>
    <text style="font-size: 8px; font-family: 'Arial', 'Helvetica', 'DejaVu Sans', sans-serif" transform="translate(166.259375 40.1217)">start LULC + same evaluation target</text>
   </g>
   <g id="text_2">
    <text style="font-size: 8px; font-family: 'Arial', 'Helvetica', 'DejaVu Sans', sans-serif" transform="translate(73.16425 78.17155)">Paper58 evidence</text>
    <text style="font-size: 8px; font-family: 'Arial', 'Helvetica', 'DejaVu Sans', sans-serif" transform="translate(17.47425 86.75005)">GeoFM/AlphaEarth features + Paper58 prediction</text>
   </g>
   <g id="text_3">
    <text style="font-size: 8px; font-family: 'Arial', 'Helvetica', 'DejaVu Sans', sans-serif" transform="translate(44.253 120.702345)">Adaptive demand and budget gate</text>
    <text style="font-size: 8px; font-family: 'Arial', 'Helvetica', 'DejaVu Sans', sans-serif" transform="translate(27.694875 129.257595)">transition prior blend + change budget scale</text>
   </g>
   <g id="text_4">
    <text style="font-size: 8px; font-family: 'Arial', 'Helvetica', 'DejaVu Sans', sans-serif" transform="translate(58.9405 163.32714)">Latent allocation simulator</text>
    <text style="font-size: 8px; font-family: 'Arial', 'Helvetica', 'DejaVu Sans', sans-serif" transform="translate(27.473625 171.78864)">latent suitability + neighborhood competition</text>
   </g>
   <g id="text_5">
    <text style="font-size: 8px; font-family: 'Arial', 'Helvetica', 'DejaVu Sans', sans-serif; text-anchor: middle" x="105.408" y="212.892555" transform="rotate(-0 105.408 212.892555)">Paper58-LAS map</text>
   </g>
   <g id="text_6">
    <text style="font-size: 8px; font-family: 'Arial', 'Helvetica', 'DejaVu Sans', sans-serif" transform="translate(300.993875 78.218175)">Official FLUS console baseline</text>
    <text style="font-size: 8px; font-family: 'Arial', 'Helvetica', 'DejaVu Sans', sans-serif" transform="translate(314.70325 86.679675)">compiled console code</text>
   </g>
   <g id="text_7">
    <text style="font-size: 8px; font-family: 'Arial', 'Helvetica', 'DejaVu Sans', sans-serif" transform="translate(318.707 120.69072)">Matched case inputs</text>
    <text style="font-size: 8px; font-family: 'Arial', 'Helvetica', 'DejaVu Sans', sans-serif" transform="translate(285.2495 129.26922)">class mapping + demand/mask/settings</text>
   </g>
   <g id="text_8">
    <text style="font-size: 8px; font-family: 'Arial', 'Helvetica', 'DejaVu Sans', sans-serif; text-anchor: middle" x="355.392" y="167.653515" transform="rotate(-0 355.392 167.653515)">FLUS competitive allocation</text>
   </g>
   <g id="text_9">
    <text style="font-size: 8px; font-family: 'Arial', 'Helvetica', 'DejaVu Sans', sans-serif; text-anchor: middle" x="355.392" y="212.892555" transform="rotate(-0 355.392 212.892555)">FLUS output map</text>
   </g>
   <g id="text_10">
    <text style="font-size: 8px; font-family: 'Arial', 'Helvetica', 'DejaVu Sans', sans-serif" transform="translate(190.386875 248.421855)">Paired metrics by area</text>
    <text style="font-size: 8px; font-family: 'Arial', 'Helvetica', 'DejaVu Sans', sans-serif" transform="translate(142 257.005605)">F1, FoM, recall, transition accuracy, disagreement</text>
   </g>
   <g id="text_11">
    <text style="font-weight: 700; font-size: 9px; font-family: 'Arial', 'Helvetica', 'DejaVu Sans', sans-serif; text-anchor: middle; fill: #007c89" x="105.408" y="60.4224" transform="rotate(-0 105.408 60.4224)">Paper58-LAS route</text>
   </g>
   <g id="text_12">
    <text style="font-weight: 700; font-size: 9px; font-family: 'Arial', 'Helvetica', 'DejaVu Sans', sans-serif; text-anchor: middle; fill: #5f6368" x="355.392" y="60.4224" transform="rotate(-0 355.392 60.4224)">FLUS baseline route</text>
   </g>
  </g>
 </g>
 <defs>
  <clipPath id="p21ef2b326d">
   <rect x="7.2" y="7.2" width="446.4" height="266.112"/>
  </clipPath>
 </defs>
</svg>
