<?xml version="1.0" encoding="utf-8" standalone="no"?>
<!DOCTYPE svg PUBLIC "-//W3C//DTD SVG 1.1//EN"
  "http://www.w3.org/Graphics/SVG/1.1/DTD/svg11.dtd">
<svg xmlns:xlink="http://www.w3.org/1999/xlink" width="441.063321pt" height="227.9115pt" viewBox="0 0 441.063321 227.9115" xmlns="http://www.w3.org/2000/svg" version="1.1">
 <metadata>
  <rdf:RDF xmlns:dc="http://purl.org/dc/elements/1.1/" xmlns:cc="http://creativecommons.org/ns#" xmlns:rdf="http://www.w3.org/1999/02/22-rdf-syntax-ns#">
   <cc:Work>
    <dc:type rdf:resource="http://purl.org/dc/dcmitype/StillImage"/>
    <dc:date>2026-06-25T00:43:35.359443</dc:date>
    <dc:format>image/svg+xml</dc:format>
    <dc:creator>
     <cc:Agent>
      <dc:title>Matplotlib v3.10.9, https://matplotlib.org/</dc:title>
     </cc:Agent>
    </dc:creator>
   </cc:Work>
  </rdf:RDF>
 </metadata>
 <defs>
  <style type="text/css">*{stroke-linejoin: round; stroke-linecap: butt}</style>
 </defs>
 <g id="figure_1">
  <g id="patch_1">
   <path d="M 0 227.9115
L 441.063321 227.9115
L 441.063321 0
L 0 0
z
" style="fill: #ffffff"/>
  </g>
  <g id="axes_1">
   <g id="patch_2">
    <path d="M 41.1825 194.98525
L 423.800843 194.98525
L 423.800843 20.0715
L 41.1825 20.0715
z
" style="fill: #ffffff"/>
   </g>
   <g id="FillBetweenPolyCollection_1">
    <defs>
     <path id="m8a0da7411d" d="M 57.580429 -160.933685
L 57.580429 -71.84694
L 112.240192 -92.995501
L 166.899956 -92.995501
L 276.219482 -87.810844
L 385.539009 -92.621494
L 385.539009 -198.561504
L 385.539009 -198.561504
L 276.219482 -193.943446
L 166.899956 -197.515241
L 112.240192 -199.889375
L 57.580429 -160.933685
z
"/>
    </defs>
    <g clip-path="url(#p689c7e7e8f)">
     <use xlink:href="#m8a0da7411d" x="0" y="227.9115" style="fill: #4c78a8; fill-opacity: 0.12"/>
    </g>
   </g>
   <g id="FillBetweenPolyCollection_2">
    <defs>
     <path id="m6cb0649f23" d="M 57.580429 -83.189237
L 57.580429 -40.876875
L 112.240192 -66.821835
L 166.899956 -67.350795
L 276.219482 -64.196497
L 385.539009 -66.9385
L 385.539009 -120.07254
L 385.539009 -120.07254
L 276.219482 -116.764173
L 166.899956 -118.047512
L 112.240192 -118.949819
L 57.580429 -83.189237
z
"/>
    </defs>
    <g clip-path="url(#p689c7e7e8f)">
     <use xlink:href="#m6cb0649f23" x="0" y="227.9115" style="fill: #4daa9a; fill-opacity: 0.12"/>
    </g>
   </g>
   <g id="matplotlib.axis_1">
    <g id="xtick_1">
     <g id="line2d_1">
      <defs>
       <path id="m4c3d69b6ff" d="M 0 0
L 0 3.5
" style="stroke: #222222; stroke-width: 0.8"/>
      </defs>
      <g>
       <use xlink:href="#m4c3d69b6ff" x="57.580429" y="194.98525" style="fill: #222222; stroke: #222222; stroke-width: 0.8"/>
      </g>
     </g>
     <g id="text_1">
      <text style="font-size: 8px; font-family: 'Arial', 'Helvetica', 'DejaVu Sans', sans-serif; text-anchor: middle; fill: #222222" x="57.580429" y="207.7115" transform="rotate(-0 57.580429 207.7115)">0.0</text>
     </g>
    </g>
    <g id="xtick_2">
     <g id="line2d_2">
      <g>
       <use xlink:href="#m4c3d69b6ff" x="112.240192" y="194.98525" style="fill: #222222; stroke: #222222; stroke-width: 0.8"/>
      </g>
     </g>
     <g id="text_2">
      <text style="font-size: 8px; font-family: 'Arial', 'Helvetica', 'DejaVu Sans', sans-serif; text-anchor: middle; fill: #222222" x="112.240192" y="207.7115" transform="rotate(-0 112.240192 207.7115)">0.5</text>
     </g>
    </g>
    <g id="xtick_3">
     <g id="line2d_3">
      <g>
       <use xlink:href="#m4c3d69b6ff" x="166.899956" y="194.98525" style="fill: #222222; stroke: #222222; stroke-width: 0.8"/>
      </g>
     </g>
     <g id="text_3">
      <text style="font-size: 8px; font-family: 'Arial', 'Helvetica', 'DejaVu Sans', sans-serif; text-anchor: middle; fill: #222222" x="166.899956" y="207.7115" transform="rotate(-0 166.899956 207.7115)">1.0</text>
     </g>
    </g>
    <g id="xtick_4">
     <g id="line2d_4">
      <g>
       <use xlink:href="#m4c3d69b6ff" x="221.559719" y="194.98525" style="fill: #222222; stroke: #222222; stroke-width: 0.8"/>
      </g>
     </g>
     <g id="text_4">
      <text style="font-size: 8px; font-family: 'Arial', 'Helvetica', 'DejaVu Sans', sans-serif; text-anchor: middle; fill: #222222" x="221.559719" y="207.7115" transform="rotate(-0 221.559719 207.7115)">1.5</text>
     </g>
    </g>
    <g id="xtick_5">
     <g id="line2d_5">
      <g>
       <use xlink:href="#m4c3d69b6ff" x="276.219482" y="194.98525" style="fill: #222222; stroke: #222222; stroke-width: 0.8"/>
      </g>
     </g>
     <g id="text_5">
      <text style="font-size: 8px; font-family: 'Arial', 'Helvetica', 'DejaVu Sans', sans-serif; text-anchor: middle; fill: #222222" x="276.219482" y="207.7115" transform="rotate(-0 276.219482 207.7115)">2.0</text>
     </g>
    </g>
    <g id="xtick_6">
     <g id="line2d_6">
      <g>
       <use xlink:href="#m4c3d69b6ff" x="330.879245" y="194.98525" style="fill: #222222; stroke: #222222; stroke-width: 0.8"/>
      </g>
     </g>
     <g id="text_6">
      <text style="font-size: 8px; font-family: 'Arial', 'Helvetica', 'DejaVu Sans', sans-serif; text-anchor: middle; fill: #222222" x="330.879245" y="207.7115" transform="rotate(-0 330.879245 207.7115)">2.5</text>
     </g>
    </g>
    <g id="xtick_7">
     <g id="line2d_7">
      <g>
       <use xlink:href="#m4c3d69b6ff" x="385.539009" y="194.98525" style="fill: #222222; stroke: #222222; stroke-width: 0.8"/>
      </g>
     </g>
     <g id="text_7">
      <text style="font-size: 8px; font-family: 'Arial', 'Helvetica', 'DejaVu Sans', sans-serif; text-anchor: middle; fill: #222222" x="385.539009" y="207.7115" transform="rotate(-0 385.539009 207.7115)">3.0</text>
     </g>
    </g>
    <g id="text_8">
     <text style="font-size: 8px; font-family: 'Arial', 'Helvetica', 'DejaVu Sans', sans-serif; text-anchor: middle; fill: #222222" x="232.491671" y="219.02775" transform="rotate(-0 232.491671 219.02775)">Neighborhood weight</text>
    </g>
   </g>
   <g id="matplotlib.axis_2">
    <g id="ytick_1">
     <g id="line2d_8">
      <defs>
       <path id="m35e5bb1391" d="M 0 0
L -3.5 0
" style="stroke: #222222; stroke-width: 0.8"/>
      </defs>
      <g>
       <use xlink:href="#m35e5bb1391" x="41.1825" y="185.969921" style="fill: #222222; stroke: #222222; stroke-width: 0.8"/>
      </g>
     </g>
     <g id="text_9">
      <text style="font-size: 8px; font-family: 'Arial', 'Helvetica', 'DejaVu Sans', sans-serif; text-anchor: end; fill: #222222" x="34.1825" y="188.833046" transform="rotate(-0 34.1825 188.833046)">0.00</text>
     </g>
    </g>
    <g id="ytick_2">
     <g id="line2d_9">
      <g>
       <use xlink:href="#m35e5bb1391" x="41.1825" y="165.765193" style="fill: #222222; stroke: #222222; stroke-width: 0.8"/>
      </g>
     </g>
     <g id="text_10">
      <text style="font-size: 8px; font-family: 'Arial', 'Helvetica', 'DejaVu Sans', sans-serif; text-anchor: end; fill: #222222" x="34.1825" y="168.628318" transform="rotate(-0 34.1825 168.628318)">0.02</text>
     </g>
    </g>
    <g id="ytick_3">
     <g id="line2d_10">
      <g>
       <use xlink:href="#m35e5bb1391" x="41.1825" y="145.560464" style="fill: #222222; stroke: #222222; stroke-width: 0.8"/>
      </g>
     </g>
     <g id="text_11">
      <text style="font-size: 8px; font-family: 'Arial', 'Helvetica', 'DejaVu Sans', sans-serif; text-anchor: end; fill: #222222" x="34.1825" y="148.423589" transform="rotate(-0 34.1825 148.423589)">0.04</text>
     </g>
    </g>
    <g id="ytick_4">
     <g id="line2d_11">
      <g>
       <use xlink:href="#m35e5bb1391" x="41.1825" y="125.355736" style="fill: #222222; stroke: #222222; stroke-width: 0.8"/>
      </g>
     </g>
     <g id="text_12">
      <text style="font-size: 8px; font-family: 'Arial', 'Helvetica', 'DejaVu Sans', sans-serif; text-anchor: end; fill: #222222" x="34.1825" y="128.218861" transform="rotate(-0 34.1825 128.218861)">0.06</text>
     </g>
    </g>
    <g id="ytick_5">
     <g id="line2d_12">
      <g>
       <use xlink:href="#m35e5bb1391" x="41.1825" y="105.151007" style="fill: #222222; stroke: #222222; stroke-width: 0.8"/>
      </g>
     </g>
     <g id="text_13">
      <text style="font-size: 8px; font-family: 'Arial', 'Helvetica', 'DejaVu Sans', sans-serif; text-anchor: end; fill: #222222" x="34.1825" y="108.014132" transform="rotate(-0 34.1825 108.014132)">0.08</text>
     </g>
    </g>
    <g id="ytick_6">
     <g id="line2d_13">
      <g>
       <use xlink:href="#m35e5bb1391" x="41.1825" y="84.946279" style="fill: #222222; stroke: #222222; stroke-width: 0.8"/>
      </g>
     </g>
     <g id="text_14">
      <text style="font-size: 8px; font-family: 'Arial', 'Helvetica', 'DejaVu Sans', sans-serif; text-anchor: end; fill: #222222" x="34.1825" y="87.809404" transform="rotate(-0 34.1825 87.809404)">0.10</text>
     </g>
    </g>
    <g id="ytick_7">
     <g id="line2d_14">
      <g>
       <use xlink:href="#m35e5bb1391" x="41.1825" y="64.74155" style="fill: #222222; stroke: #222222; stroke-width: 0.8"/>
      </g>
     </g>
     <g id="text_15">
      <text style="font-size: 8px; font-family: 'Arial', 'Helvetica', 'DejaVu Sans', sans-serif; text-anchor: end; fill: #222222" x="34.1825" y="67.604675" transform="rotate(-0 34.1825 67.604675)">0.12</text>
     </g>
    </g>
    <g id="ytick_8">
     <g id="line2d_15">
      <g>
       <use xlink:href="#m35e5bb1391" x="41.1825" y="44.536822" style="fill: #222222; stroke: #222222; stroke-width: 0.8"/>
      </g>
     </g>
     <g id="text_16">
      <text style="font-size: 8px; font-family: 'Arial', 'Helvetica', 'DejaVu Sans', sans-serif; text-anchor: end; fill: #222222" x="34.1825" y="47.399947" transform="rotate(-0 34.1825 47.399947)">0.14</text>
     </g>
    </g>
    <g id="ytick_9">
     <g id="line2d_16">
      <g>
       <use xlink:href="#m35e5bb1391" x="41.1825" y="24.332093" style="fill: #222222; stroke: #222222; stroke-width: 0.8"/>
      </g>
     </g>
     <g id="text_17">
      <text style="font-size: 8px; font-family: 'Arial', 'Helvetica', 'DejaVu Sans', sans-serif; text-anchor: end; fill: #222222" x="34.1825" y="27.195218" transform="rotate(-0 34.1825 27.195218)">0.16</text>
     </g>
    </g>
    <g id="text_18">
     <text style="font-size: 8px; font-family: 'Arial', 'Helvetica', 'DejaVu Sans', sans-serif; text-anchor: middle; fill: #222222" x="13.02375" y="107.528375" transform="rotate(-90 13.02375 107.528375)">Paper58-LAS minus official FLUS console</text>
    </g>
   </g>
   <g id="line2d_17">
    <path d="M 57.580429 66.977815
L 112.240192 28.022125
L 166.899956 30.396259
L 276.219482 33.968054
L 385.539009 29.349996
" clip-path="url(#p689c7e7e8f)" style="fill: none; stroke: #4c78a8; stroke-width: 1.5; stroke-linecap: square"/>
    <defs>
     <path id="m833a4b611c" d="M 0 3
C 0.795609 3 1.55874 2.683901 2.12132 2.12132
C 2.683901 1.55874 3 0.795609 3 0
C 3 -0.795609 2.683901 -1.55874 2.12132 -2.12132
C 1.55874 -2.683901 0.795609 -3 0 -3
C -0.795609 -3 -1.55874 -2.683901 -2.12132 -2.12132
C -2.683901 -1.55874 -3 -0.795609 -3 0
C -3 0.795609 -2.683901 1.55874 -2.12132 2.12132
C -1.55874 2.683901 -0.795609 3 0 3
z
" style="stroke: #4c78a8"/>
    </defs>
    <g clip-path="url(#p689c7e7e8f)">
     <use xlink:href="#m833a4b611c" x="57.580429" y="66.977815" style="fill: #4c78a8; stroke: #4c78a8"/>
     <use xlink:href="#m833a4b611c" x="112.240192" y="28.022125" style="fill: #4c78a8; stroke: #4c78a8"/>
     <use xlink:href="#m833a4b611c" x="166.899956" y="30.396259" style="fill: #4c78a8; stroke: #4c78a8"/>
     <use xlink:href="#m833a4b611c" x="276.219482" y="33.968054" style="fill: #4c78a8; stroke: #4c78a8"/>
     <use xlink:href="#m833a4b611c" x="385.539009" y="29.349996" style="fill: #4c78a8; stroke: #4c78a8"/>
    </g>
   </g>
   <g id="line2d_18">
    <path d="M 57.580429 144.722263
L 112.240192 108.961681
L 166.899956 109.863988
L 276.219482 111.147327
L 385.539009 107.83896
" clip-path="url(#p689c7e7e8f)" style="fill: none; stroke: #4daa9a; stroke-width: 1.5; stroke-linecap: square"/>
    <defs>
     <path id="ma03a5e899d" d="M 0 3
C 0.795609 3 1.55874 2.683901 2.12132 2.12132
C 2.683901 1.55874 3 0.795609 3 0
C 3 -0.795609 2.683901 -1.55874 2.12132 -2.12132
C 1.55874 -2.683901 0.795609 -3 0 -3
C -0.795609 -3 -1.55874 -2.683901 -2.12132 -2.12132
C -2.683901 -1.55874 -3 -0.795609 -3 0
C -3 0.795609 -2.683901 1.55874 -2.12132 2.12132
C -1.55874 2.683901 -0.795609 3 0 3
z
" style="stroke: #4daa9a"/>
    </defs>
    <g clip-path="url(#p689c7e7e8f)">
     <use xlink:href="#ma03a5e899d" x="57.580429" y="144.722263" style="fill: #4daa9a; stroke: #4daa9a"/>
     <use xlink:href="#ma03a5e899d" x="112.240192" y="108.961681" style="fill: #4daa9a; stroke: #4daa9a"/>
     <use xlink:href="#ma03a5e899d" x="166.899956" y="109.863988" style="fill: #4daa9a; stroke: #4daa9a"/>
     <use xlink:href="#ma03a5e899d" x="276.219482" y="111.147327" style="fill: #4daa9a; stroke: #4daa9a"/>
     <use xlink:href="#ma03a5e899d" x="385.539009" y="107.83896" style="fill: #4daa9a; stroke: #4daa9a"/>
    </g>
   </g>
   <g id="line2d_19">
    <path d="M 41.1825 185.969921
L 423.800843 185.969921
" clip-path="url(#p689c7e7e8f)" style="fill: none; stroke: #222222; stroke-width: 0.8; stroke-linecap: square"/>
   </g>
   <g id="patch_3">
    <path d="M 41.1825 194.98525
L 41.1825 20.0715
" style="fill: none; stroke: #000000; stroke-width: 0.8; stroke-linejoin: miter; stroke-linecap: square"/>
   </g>
   <g id="patch_4">
    <path d="M 41.1825 194.98525
L 423.800843 194.98525
" style="fill: none; stroke: #000000; stroke-width: 0.8; stroke-linejoin: miter; stroke-linecap: square"/>
   </g>
   <g id="text_19">
    <text style="font-size: 8px; font-family: 'Arial', 'Helvetica', 'DejaVu Sans', sans-serif; text-anchor: start; fill: #4c78a8" x="394.284571" y="31.419996" transform="rotate(-0 394.284571 31.419996)">Change F1</text>
   </g>
   <g id="text_20">
    <text style="font-size: 8px; font-family: 'Arial', 'Helvetica', 'DejaVu Sans', sans-serif; text-anchor: start; fill: #4daa9a" x="394.284571" y="109.907085" transform="rotate(-0 394.284571 109.907085)">FoM</text>
   </g>
   <g id="text_21">
    <text style="font-size: 9.6px; font-family: 'Arial', 'Helvetica', 'DejaVu Sans', sans-serif; text-anchor: middle" x="232.491671" y="14.0715" transform="rotate(-0 232.491671 14.0715)">Robustness: transition-prior advantage holds across neighborhood weights</text>
   </g>
  </g>
 </g>
 <defs>
  <clipPath id="p689c7e7e8f">
   <rect x="41.1825" y="20.0715" width="382.618343" height="174.91375"/>
  </clipPath>
 </defs>
</svg>
